<svg width="22" height="22" viewBox="0 0 22 22" fill="none" xmlns="http://www.w3.org/2000/svg">
<g clip-path="url(#clip0_70_116)">
<path d="M11 11.0006C9.35507 12.6455 13.3263 11.0006 11 11.0006C11 13.3269 12.6449 9.35568 11 11.0006C12.6449 12.6455 11 8.67433 11 11.0006C13.3263 11.0006 9.35507 9.35568 11 11.0006C12.6449 9.35568 8.67372 11.0006 11 11.0006C11 8.67433 9.35507 12.6455 11 11.0006C11 13.3269 9.35507 9.35568 11 11.0006C12.6449 12.6455 8.67372 11.0006 11 11.0006ZM11 21.9647C4.94456 21.9647 0.0359497 17.0561 0.0359497 11.0006C0.0359497 4.94516 4.94456 0.0365553 11 0.0365553C17.0554 0.0365553 21.9641 4.94516 21.9641 11.0006C21.9641 17.0561 17.0554 21.9647 11 21.9647Z" fill="#E43D32"/>
<g clip-path="url(#clip1_70_116)">
<path d="M5.83911 15.7126H7.7501V8.64193H5.83911V15.7126ZM6.79461 5.52064C6.15761 5.52064 5.64801 6.03024 5.64801 6.66724C5.64801 7.30424 6.15761 7.81383 6.79461 7.81383C7.4316 7.81383 7.9412 7.30424 7.9412 6.66724C7.9412 6.03024 7.4316 5.52064 6.79461 5.52064ZM10.9988 9.72483V8.64193H9.0878V15.7126H10.9988V12.0817C10.9988 10.0433 13.6105 9.91592 13.6105 12.0817V15.7126H15.5215V11.381C15.5215 7.94123 11.8906 8.06863 10.9988 9.72483Z" fill="#FFFDFC"/>
</g>
</g>
<defs>
<clipPath id="clip0_70_116">
<rect width="22" height="22" fill="white"/>
</clipPath>
<clipPath id="clip1_70_116">
<rect width="12.7399" height="12.7399" fill="white" transform="translate(4.24664 4.24665)"/>
</clipPath>
</defs>
</svg>
